<?xml version="1.0" encoding="utf-8"?>
<!-- Generator: Adobe Illustrator 17.1.0, SVG Export Plug-In . SVG Version: 6.00 Build 0)  -->
<!DOCTYPE svg PUBLIC "-//W3C//DTD SVG 1.1//EN" "http://www.w3.org/Graphics/SVG/1.1/DTD/svg11.dtd">
<svg version="1.1" id="Layer_1" xmlns="http://www.w3.org/2000/svg" xmlns:xlink="http://www.w3.org/1999/xlink" x="0px" y="0px"
	 width="512px" height="512px" viewBox="0 0 512 512" enable-background="new 0 0 512 512" xml:space="preserve">
<g>
	<path d="M224.818,395.909c-1.727,0-3.453-0.446-5-1.34c-3.094-1.786-5-5.088-5-8.66v-75.202H24.5c-5.523,0-10-4.478-10-10v-98.768
		c0-5.522,4.477-10,10-10h190.318v-75.201c0-3.572,1.906-6.874,5-8.66c3.094-1.787,6.906-1.787,10,0l233.109,134.585
		c3.094,1.786,5,5.088,5,8.66c0,3.572-1.906,6.874-5,8.66L229.818,394.569C228.271,395.463,226.545,395.909,224.818,395.909z
		 M34.5,290.707h190.318c5.523,0,10,4.478,10,10v67.882l203.109-117.266L234.818,134.059v67.881c0,5.522-4.477,10-10,10H34.5
		V290.707z"/>
</g>
<g>
	<path d="M476.979,477.635H340.124c-5.523,0-10-4.478-10-10c0-5.522,4.477-10,10-10h136.855c0.814,0,1.476-0.662,1.476-1.477V46.489
		c0-0.814-0.662-1.477-1.476-1.477H340.124c-5.523,0-10-4.478-10-10s4.477-10,10-10h136.855c11.842,0,21.476,9.635,21.476,21.477
		v409.669C498.456,468,488.821,477.635,476.979,477.635z"/>
</g>
</svg>
